# xmcd CD database file
#
# Track frame offsets:
#	182
#	12490
#	26385
#	40395
#	55110
#	69120
#	80960
#	95742
#	108742
#	121912
#	134785
#	148357
#	162845
#	175275
#
# Disc length: 2522 seconds
#
# Revision: 0
# Processed by: cddbd v1.4PL0 Copyright (c) Steve Scherf et al.
# Submitted via: CDex 1.50
#
DISCID=ce09d80e
DTITLE=Various Artist - Memphis Jamboree 1927-1936
DYEAR=1991
DGENRE=Blues
TTITLE0=Highway No. 61 Blues - Will Batts (1933)
TTITLE1=Something Gonna Happen To You - Kansas Joe McCoy (1935)
TTITLE2=That'll Be Alright - Memphis Minnie (1929)
TTITLE3=Lily Kimball Blues - Sam Townsend (1930)
TTITLE4=Dry Land Blues - Furry Lewis (1928)
TTITLE5=Soo Cow Soo - Memphis Minnie (1931)
TTITLE6=I Couldn't Stay Here - The Two Charlies (1936)
TTITLE7=Coldest Stuff In Town - Hattie Hart (1934)
TTITLE8=Squeaky Work Bench Blues - Yank Rachell and Dan Smith (1934)
TTITLE9=Drunken Barrel House Blues - Memphis Minnie (1934)
TTITLE10=Jim Jackson's Jamboree - Jim Jackson and Co. (1929)
TTITLE11=Ain't No Use You Tryin' To Tell On Me - Memphis Minnie (1933)
TTITLE12=Can You Blame The Colored Man - Gus Cannon (1927)
TTITLE13=Joliet Bound - Kansas Joe McCoy (1932)
EXTD=YEAR: 1991
EXTT0=
EXTT1=
EXTT2=
EXTT3=
EXTT4=
EXTT5=
EXTT6=
EXTT7=
EXTT8=
EXTT9=
EXTT10=
EXTT11=
EXTT12=
EXTT13=
PLAYORDER=
